<svg width="85" height="86" viewBox="0 0 85 86" fill="none" xmlns="http://www.w3.org/2000/svg">
<path d="M78.4219 36.4038H48.6094V6.31754C48.6094 2.92754 45.7969 0.102539 42.4219 0.102539H6.28125C2.90625 0.102539 0.09375 2.92754 0.09375 6.31754V78.92C0.09375 82.31 2.90625 85.135 6.28125 85.135H42.4219C42.7031 85.135 42.9844 85.135 43.2656 84.9938H78.4219C81.7969 84.9938 84.6094 82.1688 84.6094 78.7788V42.6188C84.75 39.2288 81.9375 36.4038 78.4219 36.4038ZM2.90625 78.92V6.31754C2.90625 4.48129 4.45312 2.92754 6.28125 2.92754H42.4219C44.25 2.92754 45.7969 4.48129 45.7969 6.31754V78.92C45.7969 80.615 44.6719 81.8863 43.125 82.31H6.14063C6 82.31 6 82.31 5.85938 82.31C4.17188 82.1688 2.90625 80.7563 2.90625 78.92ZM81.9375 78.92C81.9375 80.7563 80.3906 82.31 78.5625 82.31H47.625C48.1875 81.3213 48.6094 80.1913 48.6094 78.92V39.2288H78.4219C80.25 39.2288 81.7969 40.7825 81.7969 42.6188V78.92H81.9375Z" fill="white"/>
<path d="M53.9531 13.2388C62.5312 13.2388 69.5625 20.3013 69.5625 28.9175L65.7656 25.5275C65.2031 24.9625 64.3594 25.1038 63.7969 25.6688C63.2344 26.2338 63.375 27.0813 63.9375 27.6463L71.1094 34.1438L77.5781 26.94C78.1406 26.375 78 25.5275 77.4375 24.9625C76.875 24.3975 76.0312 24.5388 75.4687 25.1038L72.375 28.635C72.0937 18.7475 63.9375 10.6963 53.9531 10.6963C53.1094 10.6963 52.5469 11.2613 52.5469 12.1088C52.5469 12.9563 53.1094 13.2388 53.9531 13.2388Z" fill="white"/>
</svg>
