<svg width="46" height="44" viewBox="0 0 46 44" fill="none" xmlns="http://www.w3.org/2000/svg">
<path fill-rule="evenodd" clip-rule="evenodd" d="M22.9414 0.00012207C10.5591 0.00012207 0.52124 9.84986 0.52124 22.0001C0.52124 34.1504 10.5591 44.0001 22.9414 44.0001C35.3238 44.0001 45.3617 34.1504 45.3617 22.0001C45.3617 9.84986 35.3238 0.00012207 22.9414 0.00012207ZM22.317 18.6438L22.27 17.8825C22.1288 15.9095 23.3677 14.1074 25.328 13.4082C26.0494 13.1597 27.2727 13.1286 28.0725 13.3461C28.3861 13.4393 28.9821 13.75 29.4055 14.0297L30.1739 14.5424L31.0208 14.2782C31.4913 14.1384 32.1186 13.9054 32.4008 13.75C32.6674 13.6102 32.9027 13.5325 32.9027 13.5791C32.9027 13.8432 32.3224 14.7443 31.8363 15.2415C31.1776 15.9406 31.3658 16.0027 32.6988 15.5366C33.4986 15.2725 33.5143 15.2725 33.3575 15.5677C33.2634 15.7231 32.7772 16.2668 32.2597 16.764C31.3815 17.6184 31.3344 17.7116 31.3344 18.4263C31.3344 19.5293 30.8012 21.8286 30.268 23.087C29.28 25.4484 27.1629 27.8875 25.0458 29.1148C22.0661 30.8393 18.0984 31.2743 14.7581 30.2645C13.6446 29.9227 11.7313 29.0527 11.7313 28.8973C11.7313 28.8507 12.3116 28.7886 13.0173 28.7731C14.4915 28.742 15.9656 28.3381 17.2202 27.6234L18.0671 27.1263L17.0947 26.8C15.7147 26.334 14.4758 25.262 14.1621 24.2522C14.068 23.9259 14.0994 23.9104 14.9776 23.9104L15.8872 23.8948L15.1188 23.5375C14.2092 23.087 13.378 22.3257 12.9703 21.549C12.6723 20.9897 12.2959 19.5759 12.4057 19.4672C12.4371 19.4206 12.7664 19.5138 13.1428 19.6381C14.2249 20.0265 14.366 19.9332 13.7387 19.2807C12.5625 18.1 12.2018 16.3445 12.7664 14.6822L13.033 13.9365L14.068 14.9463C16.1852 16.9815 18.6787 18.1932 21.5329 18.5506L22.317 18.6438Z" fill="#00E1D4"/>
</svg>
