<svg width="46" height="44" viewBox="0 0 46 44" fill="none" xmlns="http://www.w3.org/2000/svg">
<path fill-rule="evenodd" clip-rule="evenodd" d="M0.680908 22C0.680908 9.84974 10.7188 0 23.1011 0C35.4835 0 45.5213 9.84974 45.5213 22C45.5213 34.1503 35.4835 44 23.1011 44C10.7188 44 0.680908 34.1503 0.680908 22ZM23.0863 22.353C26.3924 22.353 29.0799 19.8071 29.0799 16.6772C29.0799 13.5464 26.3924 10.9998 23.0863 10.9998C19.7809 10.9998 17.0927 13.5464 17.0927 16.6772C17.0927 19.8071 19.7809 22.353 23.0863 22.353ZM29.0064 25.6215C27.9226 26.2662 26.746 26.7234 25.526 26.9867L28.8765 30.1607C29.5629 30.8094 29.5629 31.8631 28.8765 32.5126C28.1909 33.1621 27.0795 33.1621 26.3945 32.5126L23.1003 29.3936L19.8088 32.5126C19.4656 32.837 19.0159 32.9994 18.5662 32.9994C18.1172 32.9994 17.6682 32.837 17.325 32.5126C16.6394 31.8631 16.6394 30.8101 17.3243 30.1607L20.6753 26.9867C19.4552 26.7234 18.2786 26.2655 17.1949 25.6215C16.3747 25.1317 16.1283 24.1055 16.6451 23.3279C17.1604 22.5494 18.2442 22.315 19.0658 22.8048C21.5195 24.2668 24.6803 24.2672 27.1354 22.8048C27.957 22.315 29.0404 22.5494 29.5568 23.3279C30.0736 24.1048 29.8265 25.1317 29.0064 25.6215Z" fill="#00E1D4"/>
<path fill-rule="evenodd" clip-rule="evenodd" d="M23.0861 14.3271C24.4546 14.3271 25.5678 15.3812 25.5678 16.6774C25.5678 17.9726 24.4546 19.0273 23.0861 19.0273C21.7187 19.0273 20.6045 17.9726 20.6045 16.6774C20.6045 15.3812 21.7187 14.3271 23.0861 14.3271Z" fill="#00E1D4"/>
</svg>
