<svg width="46" height="44" viewBox="0 0 46 44" fill="none" xmlns="http://www.w3.org/2000/svg">
<path fill-rule="evenodd" clip-rule="evenodd" d="M23.2605 0C10.8782 0 0.840332 9.84974 0.840332 22C0.840332 34.1503 10.8782 44 23.2605 44C35.6429 44 45.6807 34.1503 45.6807 22C45.6807 9.84974 35.6429 0 23.2605 0ZM25.0863 28.2114C24.8652 28.4402 24.4336 28.4863 24.4336 28.4863H23.0043C23.0043 28.4863 19.8508 28.6689 17.0728 25.8838C14.0434 22.8453 11.3683 16.8167 11.3683 16.8167C11.3683 16.8167 11.2139 16.4213 11.3812 16.2309C11.5695 16.0157 12.083 16.0021 12.083 16.0021L15.4996 15.9807C15.4996 15.9807 15.8213 16.0314 16.0517 16.1948C16.2424 16.33 16.3488 16.5812 16.3488 16.5812C16.3488 16.5812 16.9009 17.9264 17.6319 19.1432C19.0601 21.5193 19.7245 22.0386 20.2087 21.784C20.9152 21.4134 20.7035 18.4255 20.7035 18.4255C20.7035 18.4255 20.7164 17.3417 20.3479 16.8584C20.0625 16.4843 19.5245 16.3751 19.287 16.3446C19.094 16.3199 19.4098 15.8895 19.8192 15.6968C20.4345 15.4073 21.5199 15.3904 22.8031 15.4028C23.8032 15.4129 24.0909 15.4726 24.4816 15.5639C25.3883 15.7746 25.36 16.45 25.2989 17.9077C25.2806 18.3436 25.2594 18.8495 25.2594 19.4339C25.2594 19.5652 25.2554 19.7052 25.2513 19.8492C25.2301 20.5959 25.2059 21.4511 25.7167 21.7694C25.9788 21.9316 26.6186 21.793 28.2199 19.1747C28.979 17.9332 29.5474 16.4742 29.5474 16.4742C29.5474 16.4742 29.6726 16.214 29.8656 16.1024C30.0633 15.9886 30.3299 16.0236 30.3299 16.0236L33.9255 16.0021C33.9255 16.0021 35.0063 15.8771 35.1806 16.348C35.3642 16.8404 34.7771 17.9918 33.3079 19.8778C31.9157 21.6655 31.2375 22.3248 31.2983 22.9071C31.3427 23.3336 31.7836 23.7187 32.6307 24.4755C34.3967 26.0548 34.87 26.8857 34.9837 27.0853C34.9932 27.1018 35.0001 27.1141 35.0051 27.122C35.797 28.3872 34.1267 28.4863 34.1267 28.4863L30.9323 28.5292C30.9323 28.5292 30.2469 28.6598 29.3439 28.0627C28.8709 27.7502 28.4087 27.2398 27.9684 26.7536C27.2961 26.0111 26.675 25.3252 26.1448 25.4873C25.2547 25.7599 25.2816 27.6064 25.2816 27.6064C25.2816 27.6064 25.2886 28.0019 25.0863 28.2114Z" fill="#00E1D4"/>
</svg>
